<?xml version="1.0" encoding="UTF-8" standalone="no"?>
<!-- Created with Inkscape (http://www.inkscape.org/) -->

<svg
   xmlns:dc="http://purl.org/dc/elements/1.1/"
   xmlns:cc="http://creativecommons.org/ns#"
   xmlns:rdf="http://www.w3.org/1999/02/22-rdf-syntax-ns#"
   xmlns:svg="http://www.w3.org/2000/svg"
   xmlns="http://www.w3.org/2000/svg"
   xmlns:sodipodi="http://sodipodi.sourceforge.net/DTD/sodipodi-0.dtd"
   xmlns:inkscape="http://www.inkscape.org/namespaces/inkscape"
   width="744.09448819"
   height="1052.3622047"
   id="svg2"
   version="1.1"
   inkscape:version="0.48.3.1 r9886"
   sodipodi:docname="New document 1">
  <defs
     id="defs4" />
  <sodipodi:namedview
     id="base"
     pagecolor="#ffffff"
     bordercolor="#666666"
     borderopacity="1.0"
     inkscape:pageopacity="0.0"
     inkscape:pageshadow="2"
     inkscape:zoom="1.9528037"
     inkscape:cx="217.14286"
     inkscape:cy="196.19765"
     inkscape:document-units="px"
     inkscape:current-layer="layer1"
     showgrid="false"
     inkscape:window-width="1366"
     inkscape:window-height="744"
     inkscape:window-x="0"
     inkscape:window-y="24"
     inkscape:window-maximized="1" />
  <metadata
     id="metadata7">
    <rdf:RDF>
      <cc:Work
         rdf:about="">
        <dc:format>image/svg+xml</dc:format>
        <dc:type
           rdf:resource="http://purl.org/dc/dcmitype/StillImage" />
        <dc:title></dc:title>
      </cc:Work>
    </rdf:RDF>
  </metadata>
  <g
     inkscape:label="Layer 1"
     inkscape:groupmode="layer"
     id="layer1">
    <path
       style="fill:none;stroke:#000000;stroke-width:1px;stroke-linecap:butt;stroke-linejoin:miter;stroke-opacity:1"
       d="m 53.256764,840.35931 c 20.48337,0.51208 40.96673,0 47.623826,10.24168 6.65709,10.24169 -9.729596,30.72506 -16.386696,43.52716 -6.65709,12.80211 -23.55587,27.65255 -23.55587,36.35798 0,8.70544 3.07251,9.21752 7.68126,9.7296 4.60876,0.51209 9.7296,-6.14501 9.7296,-6.14501 3e-6,13.3142 -0.512081,10.75377 -0.512081,10.75377 0,0 -4.096674,2.56043 -10.241685,2.56043 -6.14501,0 -14.850442,-2.04834 -15.362526,-15.36253 -0.512085,-13.31419 33.797559,-49.67217 40.454654,-64.01053 6.657095,-14.33836 4.096674,-12.29002 -3.072506,-17.92295 -7.169179,-5.63293 -37.382148,-2.56042 -37.382148,-2.56042 z"
       id="path2993"
       inkscape:connector-curvature="0" />
  </g>
</svg>
