solid untitled
facet normal 0.0 0.0 -1.0
outer loop
vertex 0.21504884004884 1.66040903540904 0.0
vertex 0.21504884004884 0.0450053418803419 0.0
vertex 0.207551129426129 0.845199938949939 0.0
endloop
endfacet
facet normal 0.0 0.0 -1.0
outer loop
vertex 0.21504884004884 0.0450053418803419 0.0
vertex 0.21504884004884 1.66040903540904 0.0
vertex 0.262572496947497 1.7004159035409 0.0
endloop
endfacet
facet normal 0.0 0.0 -1.0
outer loop
vertex 0.21504884004884 0.0450053418803419 0.0
vertex 0.262572496947497 1.7004159035409 0.0
vertex 0.257554945054945 0.00499847374847375 0.0
endloop
endfacet
facet normal 0.0 0.0 -1.0
outer loop
vertex 0.257554945054945 0.00499847374847375 0.0
vertex 0.262572496947497 1.7004159035409 0.0
vertex 0.370096916971917 0.160046550671551 0.0
endloop
endfacet
facet normal 0.0 0.0 -1.0
outer loop
vertex 0.257554945054945 0.00499847374847375 0.0
vertex 0.370096916971917 0.160046550671551 0.0
vertex 0.450110653235653 0.0 0.0
endloop
endfacet
facet normal 0.0 0.0 -1.0
outer loop
vertex 0.370096916971917 0.160046550671551 0.0
vertex 0.262572496947497 1.7004159035409 0.0
vertex 0.370096916971917 1.54286858974359 0.0
endloop
endfacet
facet normal 0.0 0.0 -1.0
outer loop
vertex 0.370096916971917 0.160046550671551 0.0
vertex 0.370096916971917 1.54286858974359 0.0
vertex 0.370096916971917 0.852716727716728 0.0
endloop
endfacet
facet normal 0.0 0.0 -1.0
outer loop
vertex 0.450110653235653 0.0 0.0
vertex 0.370096916971917 0.160046550671551 0.0
vertex 0.450110653235653 0.160046550671551 0.0
endloop
endfacet
facet normal 0.0 0.0 -1.0
outer loop
vertex 0.450110653235653 0.0 0.0
vertex 0.450110653235653 0.160046550671551 0.0
vertex 0.527625152625153 0.160046550671551 0.0
endloop
endfacet
facet normal 0.0 0.0 -1.0
outer loop
vertex 0.450110653235653 0.0 0.0
vertex 0.527625152625153 0.160046550671551 0.0
vertex 0.642666361416361 0.00499847374847375 0.0
endloop
endfacet
facet normal 0.0 0.0 -1.0
outer loop
vertex 0.642666361416361 0.00499847374847375 0.0
vertex 0.527625152625153 0.160046550671551 0.0
vertex 0.57514880952381 1.70541437728938 0.0
endloop
endfacet
facet normal 0.0 0.0 -1.0
outer loop
vertex 0.642666361416361 0.00499847374847375 0.0
vertex 0.57514880952381 1.70541437728938 0.0
vertex 0.69017094017094 1.54286858974359 0.0
endloop
endfacet
facet normal 0.0 0.0 -1.0
outer loop
vertex 0.69017094017094 1.54286858974359 0.0
vertex 0.57514880952381 1.70541437728938 0.0
vertex 0.90521978021978 1.70291514041514 0.0
endloop
endfacet
facet normal 0.0 0.0 -1.0
outer loop
vertex 0.69017094017094 1.54286858974359 0.0
vertex 0.90521978021978 1.70291514041514 0.0
vertex 0.77518315018315 1.54286858974359 0.0
endloop
endfacet
facet normal 0.0 0.0 -1.0
outer loop
vertex 0.77518315018315 1.54286858974359 0.0
vertex 0.90521978021978 1.70291514041514 0.0
vertex 0.892723595848596 1.54036935286935 0.0
endloop
endfacet
facet normal 0.0 0.0 -1.0
outer loop
vertex 0.892723595848596 1.54036935286935 0.0
vertex 0.90521978021978 1.70291514041514 0.0
vertex 1.07776728479853 1.50411610958486 0.0
endloop
endfacet
facet normal 0.0 0.0 -1.0
outer loop
vertex 1.07776728479853 1.50411610958486 0.0
vertex 0.90521978021978 1.70291514041514 0.0
vertex 1.12527186355311 1.65853460775336 0.0
endloop
endfacet
facet normal 0.0 0.0 -1.0
outer loop
vertex 1.07776728479853 1.50411610958486 0.0
vertex 1.12527186355311 1.65853460775336 0.0
vertex 1.15153412126068 1.47004612141331 0.0
endloop
endfacet
facet normal 0.0 0.0 -1.0
outer loop
vertex 1.15153412126068 1.47004612141331 0.0
vertex 1.12527186355311 1.65853460775336 0.0
vertex 1.21841732486264 1.61805436317155 0.0
endloop
endfacet
facet normal 0.0 0.0 -1.0
outer loop
vertex 1.15153412126068 1.47004612141331 0.0
vertex 1.21841732486264 1.61805436317155 0.0
vertex 1.21279761904762 1.42534722222222 0.0
endloop
endfacet
facet normal 0.0 0.0 -1.0
outer loop
vertex 1.21279761904762 1.42534722222222 0.0
vertex 1.21841732486264 1.61805436317155 0.0
vertex 1.2746823489011 1.34657833485958 0.0
endloop
endfacet
facet normal 0.0 0.0 -1.0
outer loop
vertex 1.2746823489011 1.34657833485958 0.0
vertex 1.21841732486264 1.61805436317155 0.0
vertex 1.30030906593407 1.5653807997558 0.0
endloop
endfacet
facet normal 0.0 0.0 -1.0
outer loop
vertex 1.2746823489011 1.34657833485958 0.0
vertex 1.30030906593407 1.5653807997558 0.0
vertex 1.29531059218559 1.25530372405372 0.0
endloop
endfacet
facet normal 0.0 0.0 -1.0
outer loop
vertex 1.01838179181929 0.990241529304029 0.0
vertex 0.980235042735043 0.815209096459096 0.0
vertex 0.892723595848596 0.970238095238095 0.0
endloop
endfacet
facet normal 0.0 0.0 -1.0
outer loop
vertex 0.980235042735043 0.815209096459096 0.0
vertex 1.01838179181929 0.990241529304029 0.0
vertex 1.00524648962149 0.82020757020757 0.0
endloop
endfacet
facet normal 0.0 0.0 -1.0
outer loop
vertex 1.00524648962149 0.82020757020757 0.0
vertex 1.01838179181929 0.990241529304029 0.0
vertex 1.16903235653236 0.868966536935287 0.0
endloop
endfacet
facet normal 0.0 0.0 -1.0
outer loop
vertex 1.16903235653236 0.868966536935287 0.0
vertex 1.01838179181929 0.990241529304029 0.0
vertex 1.13028464590965 1.03025793650794 0.0
endloop
endfacet
facet normal 0.0 0.0 -1.0
outer loop
vertex 1.16903235653236 0.868966536935287 0.0
vertex 1.13028464590965 1.03025793650794 0.0
vertex 1.20248349740537 1.07432844932845 0.0
endloop
endfacet
facet normal 0.0 0.0 -1.0
outer loop
vertex 1.16903235653236 0.868966536935287 0.0
vertex 1.20248349740537 1.07432844932845 0.0
vertex 1.30030906593407 0.945226648351648 0.0
endloop
endfacet
facet normal 0.0 0.0 -1.0
outer loop
vertex 1.30030906593407 0.945226648351648 0.0
vertex 1.20248349740537 1.07432844932845 0.0
vertex 1.25405410561661 1.12652625152625 0.0
endloop
endfacet
facet normal 0.0 0.0 -1.0
outer loop
vertex 1.30030906593407 0.945226648351648 0.0
vertex 1.25405410561661 1.12652625152625 0.0
vertex 1.28499647054335 1.18685134310134 0.0
endloop
endfacet
facet normal 0.0 0.0 -1.0
outer loop
vertex 1.30030906593407 0.945226648351648 0.0
vertex 1.28499647054335 1.18685134310134 0.0
vertex 1.29531059218559 1.25530372405372 0.0
endloop
endfacet
facet normal 0.0 0.0 -1.0
outer loop
vertex 1.30030906593407 0.945226648351648 0.0
vertex 1.29531059218559 1.25530372405372 0.0
vertex 1.30030906593407 1.5653807997558 0.0
endloop
endfacet
facet normal 0.0 0.0 -1.0
outer loop
vertex 1.30030906593407 0.945226648351648 0.0
vertex 1.30030906593407 1.5653807997558 0.0
vertex 1.40034054487179 1.45785161019536 0.0
endloop
endfacet
facet normal 0.0 0.0 -1.0
outer loop
vertex 1.30030906593407 0.945226648351648 0.0
vertex 1.40034054487179 1.45785161019536 0.0
vertex 1.40034054487179 1.05275583791209 0.0
endloop
endfacet
facet normal 0.0 0.0 -1.0
outer loop
vertex 1.40034054487179 1.05275583791209 0.0
vertex 1.40034054487179 1.45785161019536 0.0
vertex 1.45035866910867 1.33031898656899 0.0
endloop
endfacet
facet normal 0.0 0.0 -1.0
outer loop
vertex 1.40034054487179 1.05275583791209 0.0
vertex 1.45035866910867 1.33031898656899 0.0
vertex 1.45035866910867 1.18028846153846 0.0
endloop
endfacet
facet normal 0.0 0.0 -1.0
outer loop
vertex 0.77518315018315 0.967738858363858 0.0
vertex 0.69017094017094 0.805193070818071 0.0
vertex 0.69017094017094 0.967738858363858 0.0
endloop
endfacet
facet normal 0.0 0.0 -1.0
outer loop
vertex 0.69017094017094 0.805193070818071 0.0
vertex 0.77518315018315 0.967738858363858 0.0
vertex 0.740174755799756 0.805193070818071 0.0
endloop
endfacet
facet normal 0.0 0.0 -1.0
outer loop
vertex 0.740174755799756 0.805193070818071 0.0
vertex 0.77518315018315 0.967738858363858 0.0
vertex 0.790197649572649 0.805193070818071 0.0
endloop
endfacet
facet normal 0.0 0.0 -1.0
outer loop
vertex 0.790197649572649 0.805193070818071 0.0
vertex 0.77518315018315 0.967738858363858 0.0
vertex 0.892723595848596 0.970238095238095 0.0
endloop
endfacet
facet normal 0.0 0.0 -1.0
outer loop
vertex 0.790197649572649 0.805193070818071 0.0
vertex 0.892723595848596 0.970238095238095 0.0
vertex 1.05025183150183 0.417601495726496 0.0
endloop
endfacet
facet normal 0.0 0.0 -1.0
outer loop
vertex 1.05025183150183 0.417601495726496 0.0
vertex 0.892723595848596 0.970238095238095 0.0
vertex 0.980235042735043 0.815209096459096 0.0
endloop
endfacet
facet normal 0.0 0.0 -1.0
outer loop
vertex 1.05025183150183 0.417601495726496 0.0
vertex 0.980235042735043 0.815209096459096 0.0
vertex 1.21279761904762 0.46762438949939 0.0
endloop
endfacet
facet normal 0.0 0.0 -1.0
outer loop
vertex 1.05025183150183 0.417601495726496 0.0
vertex 1.21279761904762 0.46762438949939 0.0
vertex 1.32282127594628 0.0200129731379731 0.0
endloop
endfacet
facet normal 0.0 0.0 -1.0
outer loop
vertex 1.32282127594628 0.0200129731379731 0.0
vertex 1.21279761904762 0.46762438949939 0.0
vertex 1.45035866910867 0.110023656898657 0.0
endloop
endfacet
facet normal 0.0 0.0 -1.0
outer loop
vertex 1.32282127594628 0.0200129731379731 0.0
vertex 1.45035866910867 0.110023656898657 0.0
vertex 1.37784264346764 0.0 0.0
endloop
endfacet
facet normal 0.0 0.0 -1.0
outer loop
vertex 1.37784264346764 0.0 0.0
vertex 1.45035866910867 0.110023656898657 0.0
vertex 1.4103518009768 0.00499847374847375 0.0
endloop
endfacet
facet normal 0.0 0.0 -1.0
outer loop
vertex 1.4103518009768 0.00499847374847375 0.0
vertex 1.45035866910867 0.110023656898657 0.0
vertex 1.45035866910867 0.0450053418803419 0.0
endloop
endfacet
facet normal 0.0 0.0 -1.0
outer loop
vertex 0.69017094017094 1.54286858974359 0.0
vertex 0.69017094017094 0.0600198412698413 0.0
vertex 0.642666361416361 0.00499847374847375 0.0
endloop
endfacet
facet normal 0.0 0.0 -1.0
outer loop
vertex 0.69017094017094 0.0600198412698413 0.0
vertex 0.69017094017094 1.54286858974359 0.0
vertex 0.69017094017094 1.25530372405372 0.0
endloop
endfacet
facet normal 0.0 0.0 -1.0
outer loop
vertex 0.69017094017094 0.0600198412698413 0.0
vertex 0.69017094017094 1.25530372405372 0.0
vertex 0.69017094017094 0.967738858363858 0.0
endloop
endfacet
facet normal 0.0 0.0 -1.0
outer loop
vertex 0.69017094017094 0.0600198412698413 0.0
vertex 0.69017094017094 0.967738858363858 0.0
vertex 0.69017094017094 0.805193070818071 0.0
endloop
endfacet
facet normal 0.0 0.0 -1.0
outer loop
vertex 0.69017094017094 0.0600198412698413 0.0
vertex 0.69017094017094 0.805193070818071 0.0
vertex 0.69017094017094 0.432615995115995 0.0
endloop
endfacet
facet normal 0.0 0.0 -1.0
outer loop
vertex 0.57514880952381 1.70541437728938 0.0
vertex 0.370096916971917 1.54286858974359 0.0
vertex 0.262572496947497 1.7004159035409 0.0
endloop
endfacet
facet normal 0.0 0.0 -1.0
outer loop
vertex 0.370096916971917 1.54286858974359 0.0
vertex 0.57514880952381 1.70541437728938 0.0
vertex 0.450110653235653 1.54286858974359 0.0
endloop
endfacet
facet normal 0.0 0.0 -1.0
outer loop
vertex 0.450110653235653 1.54286858974359 0.0
vertex 0.57514880952381 1.70541437728938 0.0
vertex 0.527625152625153 1.54286858974359 0.0
endloop
endfacet
facet normal 0.0 0.0 -1.0
outer loop
vertex 0.527625152625153 1.54286858974359 0.0
vertex 0.57514880952381 1.70541437728938 0.0
vertex 0.527625152625153 0.852716727716728 0.0
endloop
endfacet
facet normal 0.0 0.0 -1.0
outer loop
vertex 0.527625152625153 0.852716727716728 0.0
vertex 0.57514880952381 1.70541437728938 0.0
vertex 0.527625152625153 0.160046550671551 0.0
endloop
endfacet
facet normal 0.0 0.0 1.0
outer loop
vertex 0.262572496947497 1.7004159035409 0.5
vertex 0.370096916971917 1.54286858974359 0.5
vertex 0.57514880952381 1.70541437728938 0.5
endloop
endfacet
facet normal 0.0 0.0 1.0
outer loop
vertex 0.370096916971917 1.54286858974359 0.5
vertex 0.262572496947497 1.7004159035409 0.5
vertex 0.370096916971917 0.160046550671551 0.5
endloop
endfacet
facet normal 0.0 0.0 1.0
outer loop
vertex 0.370096916971917 1.54286858974359 0.5
vertex 0.370096916971917 0.160046550671551 0.5
vertex 0.370096916971917 0.852716727716728 0.5
endloop
endfacet
facet normal 0.0 0.0 1.0
outer loop
vertex 0.57514880952381 1.70541437728938 0.5
vertex 0.370096916971917 1.54286858974359 0.5
vertex 0.450110653235653 1.54286858974359 0.5
endloop
endfacet
facet normal 0.0 0.0 1.0
outer loop
vertex 0.57514880952381 1.70541437728938 0.5
vertex 0.450110653235653 1.54286858974359 0.5
vertex 0.527625152625153 1.54286858974359 0.5
endloop
endfacet
facet normal 0.0 0.0 1.0
outer loop
vertex 0.740174755799756 0.805193070818071 0.5
vertex 0.69017094017094 0.967738858363858 0.5
vertex 0.69017094017094 0.805193070818071 0.5
endloop
endfacet
facet normal 0.0 0.0 1.0
outer loop
vertex 0.69017094017094 0.967738858363858 0.5
vertex 0.740174755799756 0.805193070818071 0.5
vertex 0.77518315018315 0.967738858363858 0.5
endloop
endfacet
facet normal 0.0 0.0 1.0
outer loop
vertex 0.77518315018315 0.967738858363858 0.5
vertex 0.740174755799756 0.805193070818071 0.5
vertex 0.790197649572649 0.805193070818071 0.5
endloop
endfacet
facet normal 0.0 0.0 1.0
outer loop
vertex 0.77518315018315 0.967738858363858 0.5
vertex 0.790197649572649 0.805193070818071 0.5
vertex 0.892723595848596 0.970238095238095 0.5
endloop
endfacet
facet normal 0.0 0.0 1.0
outer loop
vertex 0.892723595848596 0.970238095238095 0.5
vertex 0.790197649572649 0.805193070818071 0.5
vertex 1.05025183150183 0.417601495726496 0.5
endloop
endfacet
facet normal 0.0 0.0 1.0
outer loop
vertex 0.892723595848596 0.970238095238095 0.5
vertex 1.05025183150183 0.417601495726496 0.5
vertex 0.980235042735043 0.815209096459096 0.5
endloop
endfacet
facet normal 0.0 0.0 1.0
outer loop
vertex 0.980235042735043 0.815209096459096 0.5
vertex 1.05025183150183 0.417601495726496 0.5
vertex 1.21279761904762 0.46762438949939 0.5
endloop
endfacet
facet normal 0.0 0.0 1.0
outer loop
vertex 1.21279761904762 0.46762438949939 0.5
vertex 1.05025183150183 0.417601495726496 0.5
vertex 1.32282127594628 0.0200129731379731 0.5
endloop
endfacet
facet normal 0.0 0.0 1.0
outer loop
vertex 1.21279761904762 0.46762438949939 0.5
vertex 1.32282127594628 0.0200129731379731 0.5
vertex 1.45035866910867 0.110023656898657 0.5
endloop
endfacet
facet normal 0.0 0.0 1.0
outer loop
vertex 1.45035866910867 0.110023656898657 0.5
vertex 1.32282127594628 0.0200129731379731 0.5
vertex 1.37784264346764 0.0 0.5
endloop
endfacet
facet normal 0.0 0.0 1.0
outer loop
vertex 1.45035866910867 0.110023656898657 0.5
vertex 1.37784264346764 0.0 0.5
vertex 1.4103518009768 0.00499847374847375 0.5
endloop
endfacet
facet normal 0.0 0.0 1.0
outer loop
vertex 1.45035866910867 0.110023656898657 0.5
vertex 1.4103518009768 0.00499847374847375 0.5
vertex 1.45035866910867 0.0450053418803419 0.5
endloop
endfacet
facet normal 0.0 0.0 1.0
outer loop
vertex 0.980235042735043 0.815209096459096 0.5
vertex 1.01838179181929 0.990241529304029 0.5
vertex 0.892723595848596 0.970238095238095 0.5
endloop
endfacet
facet normal 0.0 0.0 1.0
outer loop
vertex 1.01838179181929 0.990241529304029 0.5
vertex 0.980235042735043 0.815209096459096 0.5
vertex 1.00524648962149 0.82020757020757 0.5
endloop
endfacet
facet normal 0.0 0.0 1.0
outer loop
vertex 1.01838179181929 0.990241529304029 0.5
vertex 1.00524648962149 0.82020757020757 0.5
vertex 1.16903235653236 0.868966536935287 0.5
endloop
endfacet
facet normal 0.0 0.0 1.0
outer loop
vertex 1.01838179181929 0.990241529304029 0.5
vertex 1.16903235653236 0.868966536935287 0.5
vertex 1.13028464590965 1.03025793650794 0.5
endloop
endfacet
facet normal 0.0 0.0 1.0
outer loop
vertex 1.13028464590965 1.03025793650794 0.5
vertex 1.16903235653236 0.868966536935287 0.5
vertex 1.20248349740537 1.07432844932845 0.5
endloop
endfacet
facet normal 0.0 0.0 1.0
outer loop
vertex 1.20248349740537 1.07432844932845 0.5
vertex 1.16903235653236 0.868966536935287 0.5
vertex 1.30030906593407 0.945226648351648 0.5
endloop
endfacet
facet normal 0.0 0.0 1.0
outer loop
vertex 1.20248349740537 1.07432844932845 0.5
vertex 1.30030906593407 0.945226648351648 0.5
vertex 1.25405410561661 1.12652625152625 0.5
endloop
endfacet
facet normal 0.0 0.0 1.0
outer loop
vertex 1.25405410561661 1.12652625152625 0.5
vertex 1.30030906593407 0.945226648351648 0.5
vertex 1.28499647054335 1.18685134310134 0.5
endloop
endfacet
facet normal 0.0 0.0 1.0
outer loop
vertex 1.28499647054335 1.18685134310134 0.5
vertex 1.30030906593407 0.945226648351648 0.5
vertex 1.29531059218559 1.25530372405372 0.5
endloop
endfacet
facet normal 0.0 0.0 1.0
outer loop
vertex 0.21504884004884 0.0450053418803419 0.5
vertex 0.21504884004884 1.66040903540904 0.5
vertex 0.207551129426129 0.845199938949939 0.5
endloop
endfacet
facet normal 0.0 0.0 1.0
outer loop
vertex 0.21504884004884 1.66040903540904 0.5
vertex 0.21504884004884 0.0450053418803419 0.5
vertex 0.257554945054945 0.00499847374847375 0.5
endloop
endfacet
facet normal 0.0 0.0 1.0
outer loop
vertex 0.21504884004884 1.66040903540904 0.5
vertex 0.257554945054945 0.00499847374847375 0.5
vertex 0.262572496947497 1.7004159035409 0.5
endloop
endfacet
facet normal 0.0 0.0 1.0
outer loop
vertex 0.262572496947497 1.7004159035409 0.5
vertex 0.257554945054945 0.00499847374847375 0.5
vertex 0.370096916971917 0.160046550671551 0.5
endloop
endfacet
facet normal 0.0 0.0 1.0
outer loop
vertex 0.370096916971917 0.160046550671551 0.5
vertex 0.257554945054945 0.00499847374847375 0.5
vertex 0.450110653235653 0.0 0.5
endloop
endfacet
facet normal 0.0 0.0 1.0
outer loop
vertex 0.370096916971917 0.160046550671551 0.5
vertex 0.450110653235653 0.0 0.5
vertex 0.450110653235653 0.160046550671551 0.5
endloop
endfacet
facet normal 0.0 0.0 1.0
outer loop
vertex 0.450110653235653 0.160046550671551 0.5
vertex 0.450110653235653 0.0 0.5
vertex 0.642666361416361 0.00499847374847375 0.5
endloop
endfacet
facet normal 0.0 0.0 1.0
outer loop
vertex 0.450110653235653 0.160046550671551 0.5
vertex 0.642666361416361 0.00499847374847375 0.5
vertex 0.527625152625153 0.160046550671551 0.5
endloop
endfacet
facet normal 0.0 0.0 1.0
outer loop
vertex 0.527625152625153 0.160046550671551 0.5
vertex 0.642666361416361 0.00499847374847375 0.5
vertex 0.527625152625153 0.852716727716728 0.5
endloop
endfacet
facet normal 0.0 0.0 1.0
outer loop
vertex 0.527625152625153 0.852716727716728 0.5
vertex 0.642666361416361 0.00499847374847375 0.5
vertex 0.527625152625153 1.54286858974359 0.5
endloop
endfacet
facet normal 0.0 0.0 1.0
outer loop
vertex 0.527625152625153 1.54286858974359 0.5
vertex 0.642666361416361 0.00499847374847375 0.5
vertex 0.57514880952381 1.70541437728938 0.5
endloop
endfacet
facet normal 0.0 0.0 1.0
outer loop
vertex 0.57514880952381 1.70541437728938 0.5
vertex 0.642666361416361 0.00499847374847375 0.5
vertex 0.69017094017094 1.54286858974359 0.5
endloop
endfacet
facet normal 0.0 0.0 1.0
outer loop
vertex 0.57514880952381 1.70541437728938 0.5
vertex 0.69017094017094 1.54286858974359 0.5
vertex 0.90521978021978 1.70291514041514 0.5
endloop
endfacet
facet normal 0.0 0.0 1.0
outer loop
vertex 0.69017094017094 1.54286858974359 0.5
vertex 0.642666361416361 0.00499847374847375 0.5
vertex 0.69017094017094 0.0600198412698413 0.5
endloop
endfacet
facet normal 0.0 0.0 1.0
outer loop
vertex 0.69017094017094 1.54286858974359 0.5
vertex 0.69017094017094 0.0600198412698413 0.5
vertex 0.69017094017094 0.432615995115995 0.5
endloop
endfacet
facet normal 0.0 0.0 1.0
outer loop
vertex 0.69017094017094 1.54286858974359 0.5
vertex 0.69017094017094 0.432615995115995 0.5
vertex 0.69017094017094 0.805193070818071 0.5
endloop
endfacet
facet normal 0.0 0.0 1.0
outer loop
vertex 0.69017094017094 1.54286858974359 0.5
vertex 0.69017094017094 0.805193070818071 0.5
vertex 0.69017094017094 0.967738858363858 0.5
endloop
endfacet
facet normal 0.0 0.0 1.0
outer loop
vertex 0.69017094017094 1.54286858974359 0.5
vertex 0.69017094017094 0.967738858363858 0.5
vertex 0.69017094017094 1.25530372405372 0.5
endloop
endfacet
facet normal 0.0 0.0 1.0
outer loop
vertex 0.90521978021978 1.70291514041514 0.5
vertex 0.69017094017094 1.54286858974359 0.5
vertex 0.77518315018315 1.54286858974359 0.5
endloop
endfacet
facet normal 0.0 0.0 1.0
outer loop
vertex 0.90521978021978 1.70291514041514 0.5
vertex 0.77518315018315 1.54286858974359 0.5
vertex 0.892723595848596 1.54036935286935 0.5
endloop
endfacet
facet normal 0.0 0.0 1.0
outer loop
vertex 0.90521978021978 1.70291514041514 0.5
vertex 0.892723595848596 1.54036935286935 0.5
vertex 1.07776728479853 1.50411610958486 0.5
endloop
endfacet
facet normal 0.0 0.0 1.0
outer loop
vertex 0.90521978021978 1.70291514041514 0.5
vertex 1.07776728479853 1.50411610958486 0.5
vertex 1.12527186355311 1.65853460775336 0.5
endloop
endfacet
facet normal 0.0 0.0 1.0
outer loop
vertex 1.12527186355311 1.65853460775336 0.5
vertex 1.07776728479853 1.50411610958486 0.5
vertex 1.15153412126068 1.47004612141331 0.5
endloop
endfacet
facet normal 0.0 0.0 1.0
outer loop
vertex 1.12527186355311 1.65853460775336 0.5
vertex 1.15153412126068 1.47004612141331 0.5
vertex 1.21841732486264 1.61805436317155 0.5
endloop
endfacet
facet normal 0.0 0.0 1.0
outer loop
vertex 1.21841732486264 1.61805436317155 0.5
vertex 1.15153412126068 1.47004612141331 0.5
vertex 1.21279761904762 1.42534722222222 0.5
endloop
endfacet
facet normal 0.0 0.0 1.0
outer loop
vertex 1.21841732486264 1.61805436317155 0.5
vertex 1.21279761904762 1.42534722222222 0.5
vertex 1.2746823489011 1.34657833485958 0.5
endloop
endfacet
facet normal 0.0 0.0 1.0
outer loop
vertex 1.21841732486264 1.61805436317155 0.5
vertex 1.2746823489011 1.34657833485958 0.5
vertex 1.30030906593407 1.5653807997558 0.5
endloop
endfacet
facet normal 0.0 0.0 1.0
outer loop
vertex 1.30030906593407 1.5653807997558 0.5
vertex 1.2746823489011 1.34657833485958 0.5
vertex 1.29531059218559 1.25530372405372 0.5
endloop
endfacet
facet normal 0.0 0.0 1.0
outer loop
vertex 1.30030906593407 1.5653807997558 0.5
vertex 1.29531059218559 1.25530372405372 0.5
vertex 1.30030906593407 0.945226648351648 0.5
endloop
endfacet
facet normal 0.0 0.0 1.0
outer loop
vertex 1.30030906593407 1.5653807997558 0.5
vertex 1.30030906593407 0.945226648351648 0.5
vertex 1.40034054487179 1.05275583791209 0.5
endloop
endfacet
facet normal 0.0 0.0 1.0
outer loop
vertex 1.30030906593407 1.5653807997558 0.5
vertex 1.40034054487179 1.05275583791209 0.5
vertex 1.40034054487179 1.45785161019536 0.5
endloop
endfacet
facet normal 0.0 0.0 1.0
outer loop
vertex 1.40034054487179 1.45785161019536 0.5
vertex 1.40034054487179 1.05275583791209 0.5
vertex 1.45035866910867 1.18028846153846 0.5
endloop
endfacet
facet normal 0.0 0.0 1.0
outer loop
vertex 1.40034054487179 1.45785161019536 0.5
vertex 1.45035866910867 1.18028846153846 0.5
vertex 1.45035866910867 1.33031898656899 0.5
endloop
endfacet
facet normal -0.0159891667027001 0.999872165103196 0.0
outer loop
vertex 0.262572496947497 1.7004159035409 0.5
vertex 0.57514880952381 1.70541437728938 0.0
vertex 0.262572496947497 1.7004159035409 0.0
endloop
endfacet
facet normal -0.0159891667027001 0.999872165103196 0.0
outer loop
vertex 0.57514880952381 1.70541437728938 0.0
vertex 0.262572496947497 1.7004159035409 0.5
vertex 0.57514880952381 1.70541437728938 0.5
endloop
endfacet
facet normal 0.00757159961209092 0.999971335028817 0.0
outer loop
vertex 0.57514880952381 1.70541437728938 0.5
vertex 0.90521978021978 1.70291514041514 0.0
vertex 0.57514880952381 1.70541437728938 0.0
endloop
endfacet
facet normal 0.00757159961209092 0.999971335028817 0.0
outer loop
vertex 0.90521978021978 1.70291514041514 0.0
vertex 0.57514880952381 1.70541437728938 0.5
vertex 0.90521978021978 1.70291514041514 0.5
endloop
endfacet
facet normal 0.197701214907899 0.98026232694312 0.0
outer loop
vertex 0.90521978021978 1.70291514041514 0.5
vertex 1.12527186355311 1.65853460775336 0.0
vertex 0.90521978021978 1.70291514041514 0.0
endloop
endfacet
facet normal 0.197701214907899 0.98026232694312 0.0
outer loop
vertex 1.12527186355311 1.65853460775336 0.0
vertex 0.90521978021978 1.70291514041514 0.5
vertex 1.12527186355311 1.65853460775336 0.5
endloop
endfacet
facet normal 0.398578855163669 0.917134066653518 0.0
outer loop
vertex 1.12527186355311 1.65853460775336 0.5
vertex 1.21841732486264 1.61805436317155 0.0
vertex 1.12527186355311 1.65853460775336 0.0
endloop
endfacet
facet normal 0.398578855163669 0.917134066653518 0.0
outer loop
vertex 1.21841732486264 1.61805436317155 0.0
vertex 1.12527186355311 1.65853460775336 0.5
vertex 1.21841732486264 1.61805436317155 0.5
endloop
endfacet
facet normal 0.540967392371439 0.841043566285865 0.0
outer loop
vertex 1.21841732486264 1.61805436317155 0.5
vertex 1.30030906593407 1.5653807997558 0.0
vertex 1.21841732486264 1.61805436317155 0.0
endloop
endfacet
facet normal 0.540967392371439 0.841043566285865 0.0
outer loop
vertex 1.30030906593407 1.5653807997558 0.0
vertex 1.21841732486264 1.61805436317155 0.5
vertex 1.30030906593407 1.5653807997558 0.5
endloop
endfacet
facet normal 0.732172048922493 0.681119733069479 0.0
outer loop
vertex 1.30030906593407 1.5653807997558 0.0
vertex 1.40034054487179 1.45785161019536 0.5
vertex 1.40034054487179 1.45785161019536 0.0
endloop
endfacet
facet normal 0.732172048922493 0.681119733069479 0.0
outer loop
vertex 1.40034054487179 1.45785161019536 0.5
vertex 1.30030906593407 1.5653807997558 0.0
vertex 1.30030906593407 1.5653807997558 0.5
endloop
endfacet
facet normal 0.930959971992369 0.365121254582595 0.0
outer loop
vertex 1.40034054487179 1.45785161019536 0.0
vertex 1.45035866910867 1.33031898656899 0.5
vertex 1.45035866910867 1.33031898656899 0.0
endloop
endfacet
facet normal 0.930959971992369 0.365121254582595 0.0
outer loop
vertex 1.45035866910867 1.33031898656899 0.5
vertex 1.40034054487179 1.45785161019536 0.0
vertex 1.40034054487179 1.45785161019536 0.5
endloop
endfacet
facet normal 1.0 0.0 0.0
outer loop
vertex 1.45035866910867 1.33031898656899 0.0
vertex 1.45035866910867 1.18028846153846 0.5
vertex 1.45035866910867 1.18028846153846 0.0
endloop
endfacet
facet normal 1.0 0.0 0.0
outer loop
vertex 1.45035866910867 1.18028846153846 0.5
vertex 1.45035866910867 1.33031898656899 0.0
vertex 1.45035866910867 1.33031898656899 0.5
endloop
endfacet
facet normal 0.930959971992369 -0.365121254582595 0.0
outer loop
vertex 1.45035866910867 1.18028846153846 0.0
vertex 1.40034054487179 1.05275583791209 0.5
vertex 1.40034054487179 1.05275583791209 0.0
endloop
endfacet
facet normal 0.930959971992369 -0.365121254582595 0.0
outer loop
vertex 1.40034054487179 1.05275583791209 0.5
vertex 1.45035866910867 1.18028846153846 0.0
vertex 1.45035866910867 1.18028846153846 0.5
endloop
endfacet
facet normal 0.732172048922492 -0.68111973306948 0.0
outer loop
vertex 1.40034054487179 1.05275583791209 0.0
vertex 1.30030906593407 0.945226648351648 0.5
vertex 1.30030906593407 0.945226648351648 0.0
endloop
endfacet
facet normal 0.732172048922492 -0.68111973306948 0.0
outer loop
vertex 1.30030906593407 0.945226648351648 0.5
vertex 1.40034054487179 1.05275583791209 0.0
vertex 1.40034054487179 1.05275583791209 0.5
endloop
endfacet
facet normal 0.502307548793578 -0.864689034523387 0.0
outer loop
vertex 1.30030906593407 0.945226648351648 0.5
vertex 1.16903235653236 0.868966536935287 0.0
vertex 1.30030906593407 0.945226648351648 0.0
endloop
endfacet
facet normal 0.502307548793578 -0.864689034523387 0.0
outer loop
vertex 1.16903235653236 0.868966536935287 0.0
vertex 1.30030906593407 0.945226648351648 0.5
vertex 1.16903235653236 0.868966536935287 0.5
endloop
endfacet
facet normal 0.285324406518548 -0.958431000669761 0.0
outer loop
vertex 1.16903235653236 0.868966536935287 0.5
vertex 1.00524648962149 0.82020757020757 0.0
vertex 1.16903235653236 0.868966536935287 0.0
endloop
endfacet
facet normal 0.285324406518548 -0.958431000669761 0.0
outer loop
vertex 1.00524648962149 0.82020757020757 0.0
vertex 1.16903235653236 0.868966536935287 0.5
vertex 1.00524648962149 0.82020757020757 0.5
endloop
endfacet
facet normal 0.1959722895977 -0.980609433826656 0.0
outer loop
vertex 1.00524648962149 0.82020757020757 0.5
vertex 0.980235042735043 0.815209096459096 0.0
vertex 1.00524648962149 0.82020757020757 0.0
endloop
endfacet
facet normal 0.1959722895977 -0.980609433826656 0.0
outer loop
vertex 0.980235042735043 0.815209096459096 0.0
vertex 1.00524648962149 0.82020757020757 0.5
vertex 0.980235042735043 0.815209096459096 0.5
endloop
endfacet
facet normal 0.831122728287981 0.556089031112053 0.0
outer loop
vertex 0.980235042735043 0.815209096459096 0.0
vertex 1.21279761904762 0.46762438949939 0.5
vertex 1.21279761904762 0.46762438949939 0.0
endloop
endfacet
facet normal 0.831122728287981 0.556089031112053 0.0
outer loop
vertex 1.21279761904762 0.46762438949939 0.5
vertex 0.980235042735043 0.815209096459096 0.0
vertex 0.980235042735043 0.815209096459096 0.5
endloop
endfacet
facet normal 0.832951632677835 0.553345802929172 0.0
outer loop
vertex 1.21279761904762 0.46762438949939 0.0
vertex 1.45035866910867 0.110023656898657 0.5
vertex 1.45035866910867 0.110023656898657 0.0
endloop
endfacet
facet normal 0.832951632677835 0.553345802929172 0.0
outer loop
vertex 1.45035866910867 0.110023656898657 0.5
vertex 1.21279761904762 0.46762438949939 0.0
vertex 1.21279761904762 0.46762438949939 0.5
endloop
endfacet
facet normal 1.0 0.0 0.0
outer loop
vertex 1.45035866910867 0.110023656898657 0.0
vertex 1.45035866910867 0.0450053418803419 0.5
vertex 1.45035866910867 0.0450053418803419 0.0
endloop
endfacet
facet normal 1.0 0.0 0.0
outer loop
vertex 1.45035866910867 0.0450053418803419 0.5
vertex 1.45035866910867 0.110023656898657 0.0
vertex 1.45035866910867 0.110023656898657 0.5
endloop
endfacet
facet normal 0.707106781186547 -0.707106781186549 0.0
outer loop
vertex 1.45035866910867 0.0450053418803419 0.5
vertex 1.4103518009768 0.00499847374847375 0.0
vertex 1.45035866910867 0.0450053418803419 0.0
endloop
endfacet
facet normal 0.707106781186547 -0.707106781186549 0.0
outer loop
vertex 1.4103518009768 0.00499847374847375 0.0
vertex 1.45035866910867 0.0450053418803419 0.5
vertex 1.4103518009768 0.00499847374847375 0.5
endloop
endfacet
facet normal 0.151970010290328 -0.988385105094344 0.0
outer loop
vertex 1.4103518009768 0.00499847374847375 0.5
vertex 1.37784264346764 0.0 0.0
vertex 1.4103518009768 0.00499847374847375 0.0
endloop
endfacet
facet normal 0.151970010290328 -0.988385105094344 0.0
outer loop
vertex 1.37784264346764 0.0 0.0
vertex 1.4103518009768 0.00499847374847375 0.5
vertex 1.37784264346764 0.0 0.5
endloop
endfacet
facet normal -0.341821552436582 -0.939764878195523 0.0
outer loop
vertex 1.37784264346764 0.0 0.5
vertex 1.32282127594628 0.0200129731379731 0.0
vertex 1.37784264346764 0.0 0.0
endloop
endfacet
facet normal -0.341821552436582 -0.939764878195523 0.0
outer loop
vertex 1.32282127594628 0.0200129731379731 0.0
vertex 1.37784264346764 0.0 0.5
vertex 1.32282127594628 0.0200129731379731 0.5
endloop
endfacet
facet normal -0.824789498495612 -0.565439902351574 0.0
outer loop
vertex 1.05025183150183 0.417601495726496 0.5
vertex 1.32282127594628 0.0200129731379731 0.0
vertex 1.32282127594628 0.0200129731379731 0.5
endloop
endfacet
facet normal -0.824789498495612 -0.565439902351574 0.0
outer loop
vertex 1.32282127594628 0.0200129731379731 0.0
vertex 1.05025183150183 0.417601495726496 0.5
vertex 1.05025183150183 0.417601495726496 0.0
endloop
endfacet
facet normal -0.830405385657563 -0.557159667842993 0.0
outer loop
vertex 0.790197649572649 0.805193070818071 0.5
vertex 1.05025183150183 0.417601495726496 0.0
vertex 1.05025183150183 0.417601495726496 0.5
endloop
endfacet
facet normal -0.830405385657563 -0.557159667842993 0.0
outer loop
vertex 1.05025183150183 0.417601495726496 0.0
vertex 0.790197649572649 0.805193070818071 0.5
vertex 0.790197649572649 0.805193070818071 0.0
endloop
endfacet
facet normal 0.0 -1.0 0.0
outer loop
vertex 0.790197649572649 0.805193070818071 0.5
vertex 0.740174755799756 0.805193070818071 0.0
vertex 0.790197649572649 0.805193070818071 0.0
endloop
endfacet
facet normal 0.0 -1.0 0.0
outer loop
vertex 0.740174755799756 0.805193070818071 0.0
vertex 0.790197649572649 0.805193070818071 0.5
vertex 0.740174755799756 0.805193070818071 0.5
endloop
endfacet
facet normal 0.0 -1.0 0.0
outer loop
vertex 0.740174755799756 0.805193070818071 0.5
vertex 0.69017094017094 0.805193070818071 0.0
vertex 0.740174755799756 0.805193070818071 0.0
endloop
endfacet
facet normal 0.0 -1.0 0.0
outer loop
vertex 0.69017094017094 0.805193070818071 0.0
vertex 0.740174755799756 0.805193070818071 0.5
vertex 0.69017094017094 0.805193070818071 0.5
endloop
endfacet
facet normal 1.0 0.0 0.0
outer loop
vertex 0.69017094017094 0.805193070818071 0.0
vertex 0.69017094017094 0.432615995115995 0.5
vertex 0.69017094017094 0.432615995115995 0.0
endloop
endfacet
facet normal 1.0 0.0 0.0
outer loop
vertex 0.69017094017094 0.432615995115995 0.5
vertex 0.69017094017094 0.805193070818071 0.0
vertex 0.69017094017094 0.805193070818071 0.5
endloop
endfacet
facet normal 1.0 0.0 0.0
outer loop
vertex 0.69017094017094 0.432615995115995 0.0
vertex 0.69017094017094 0.0600198412698413 0.5
vertex 0.69017094017094 0.0600198412698413 0.0
endloop
endfacet
facet normal 1.0 0.0 0.0
outer loop
vertex 0.69017094017094 0.0600198412698413 0.5
vertex 0.69017094017094 0.432615995115995 0.0
vertex 0.69017094017094 0.432615995115995 0.5
endloop
endfacet
facet normal 0.756917421203645 -0.65351053356348 0.0
outer loop
vertex 0.69017094017094 0.0600198412698413 0.0
vertex 0.642666361416361 0.00499847374847375 0.5
vertex 0.642666361416361 0.00499847374847375 0.0
endloop
endfacet
facet normal 0.756917421203645 -0.65351053356348 0.0
outer loop
vertex 0.642666361416361 0.00499847374847375 0.5
vertex 0.69017094017094 0.0600198412698413 0.0
vertex 0.69017094017094 0.0600198412698413 0.5
endloop
endfacet
facet normal 0.025949843503486 -0.999663246109481 0.0
outer loop
vertex 0.642666361416361 0.00499847374847375 0.5
vertex 0.450110653235653 0.0 0.0
vertex 0.642666361416361 0.00499847374847375 0.0
endloop
endfacet
facet normal 0.025949843503486 -0.999663246109481 0.0
outer loop
vertex 0.450110653235653 0.0 0.0
vertex 0.642666361416361 0.00499847374847375 0.5
vertex 0.450110653235653 0.0 0.5
endloop
endfacet
facet normal -0.025949843503486 -0.999663246109481 0.0
outer loop
vertex 0.450110653235653 0.0 0.5
vertex 0.257554945054945 0.00499847374847375 0.0
vertex 0.450110653235653 0.0 0.0
endloop
endfacet
facet normal -0.025949843503486 -0.999663246109481 0.0
outer loop
vertex 0.257554945054945 0.00499847374847375 0.0
vertex 0.450110653235653 0.0 0.5
vertex 0.257554945054945 0.00499847374847375 0.5
endloop
endfacet
facet normal -0.68537489381928 -0.728190397438892 0.0
outer loop
vertex 0.257554945054945 0.00499847374847375 0.5
vertex 0.21504884004884 0.0450053418803419 0.0
vertex 0.257554945054945 0.00499847374847375 0.0
endloop
endfacet
facet normal -0.68537489381928 -0.728190397438892 0.0
outer loop
vertex 0.21504884004884 0.0450053418803419 0.0
vertex 0.257554945054945 0.00499847374847375 0.5
vertex 0.21504884004884 0.0450053418803419 0.5
endloop
endfacet
facet normal -0.9999561057605 -0.0093694478116462 0.0
outer loop
vertex 0.207551129426129 0.845199938949939 0.5
vertex 0.21504884004884 0.0450053418803419 0.0
vertex 0.21504884004884 0.0450053418803419 0.5
endloop
endfacet
facet normal -0.9999561057605 -0.0093694478116462 0.0
outer loop
vertex 0.21504884004884 0.0450053418803419 0.0
vertex 0.207551129426129 0.845199938949939 0.5
vertex 0.207551129426129 0.845199938949939 0.0
endloop
endfacet
facet normal -0.999957707654857 0.00919689630489958 0.0
outer loop
vertex 0.21504884004884 1.66040903540904 0.5
vertex 0.207551129426129 0.845199938949939 0.0
vertex 0.207551129426129 0.845199938949939 0.5
endloop
endfacet
facet normal -0.999957707654857 0.00919689630489958 0.0
outer loop
vertex 0.207551129426129 0.845199938949939 0.0
vertex 0.21504884004884 1.66040903540904 0.5
vertex 0.21504884004884 1.66040903540904 0.0
endloop
endfacet
facet normal -0.644012793316758 0.7650147201488 0.0
outer loop
vertex 0.21504884004884 1.66040903540904 0.5
vertex 0.262572496947497 1.7004159035409 0.0
vertex 0.21504884004884 1.66040903540904 0.0
endloop
endfacet
facet normal -0.644012793316758 0.7650147201488 0.0
outer loop
vertex 0.262572496947497 1.7004159035409 0.0
vertex 0.21504884004884 1.66040903540904 0.5
vertex 0.262572496947497 1.7004159035409 0.5
endloop
endfacet
facet normal -1.0 0.0 0.0
outer loop
vertex 0.527625152625153 1.54286858974359 0.5
vertex 0.527625152625153 0.852716727716728 0.0
vertex 0.527625152625153 0.852716727716728 0.5
endloop
endfacet
facet normal -1.0 0.0 0.0
outer loop
vertex 0.527625152625153 0.852716727716728 0.0
vertex 0.527625152625153 1.54286858974359 0.5
vertex 0.527625152625153 1.54286858974359 0.0
endloop
endfacet
facet normal 0.0 -1.0 0.0
outer loop
vertex 0.527625152625153 1.54286858974359 0.5
vertex 0.450110653235653 1.54286858974359 0.0
vertex 0.527625152625153 1.54286858974359 0.0
endloop
endfacet
facet normal 0.0 -1.0 0.0
outer loop
vertex 0.450110653235653 1.54286858974359 0.0
vertex 0.527625152625153 1.54286858974359 0.5
vertex 0.450110653235653 1.54286858974359 0.5
endloop
endfacet
facet normal 0.0 -1.0 0.0
outer loop
vertex 0.450110653235653 1.54286858974359 0.5
vertex 0.370096916971917 1.54286858974359 0.0
vertex 0.450110653235653 1.54286858974359 0.0
endloop
endfacet
facet normal 0.0 -1.0 0.0
outer loop
vertex 0.370096916971917 1.54286858974359 0.0
vertex 0.450110653235653 1.54286858974359 0.5
vertex 0.370096916971917 1.54286858974359 0.5
endloop
endfacet
facet normal 1.0 0.0 0.0
outer loop
vertex 0.370096916971917 1.54286858974359 0.0
vertex 0.370096916971917 0.852716727716728 0.5
vertex 0.370096916971917 0.852716727716728 0.0
endloop
endfacet
facet normal 1.0 0.0 0.0
outer loop
vertex 0.370096916971917 0.852716727716728 0.5
vertex 0.370096916971917 1.54286858974359 0.0
vertex 0.370096916971917 1.54286858974359 0.5
endloop
endfacet
facet normal 1.0 0.0 0.0
outer loop
vertex 0.370096916971917 0.852716727716728 0.0
vertex 0.370096916971917 0.160046550671551 0.5
vertex 0.370096916971917 0.160046550671551 0.0
endloop
endfacet
facet normal 1.0 0.0 0.0
outer loop
vertex 0.370096916971917 0.160046550671551 0.5
vertex 0.370096916971917 0.852716727716728 0.0
vertex 0.370096916971917 0.852716727716728 0.5
endloop
endfacet
facet normal 0.0 1.0 0.0
outer loop
vertex 0.370096916971917 0.160046550671551 0.5
vertex 0.450110653235653 0.160046550671551 0.0
vertex 0.370096916971917 0.160046550671551 0.0
endloop
endfacet
facet normal 0.0 1.0 0.0
outer loop
vertex 0.450110653235653 0.160046550671551 0.0
vertex 0.370096916971917 0.160046550671551 0.5
vertex 0.450110653235653 0.160046550671551 0.5
endloop
endfacet
facet normal 0.0 1.0 0.0
outer loop
vertex 0.450110653235653 0.160046550671551 0.5
vertex 0.527625152625153 0.160046550671551 0.0
vertex 0.450110653235653 0.160046550671551 0.0
endloop
endfacet
facet normal 0.0 1.0 0.0
outer loop
vertex 0.527625152625153 0.160046550671551 0.0
vertex 0.450110653235653 0.160046550671551 0.5
vertex 0.527625152625153 0.160046550671551 0.5
endloop
endfacet
facet normal -1.0 0.0 0.0
outer loop
vertex 0.527625152625153 0.852716727716728 0.5
vertex 0.527625152625153 0.160046550671551 0.0
vertex 0.527625152625153 0.160046550671551 0.5
endloop
endfacet
facet normal -1.0 0.0 0.0
outer loop
vertex 0.527625152625153 0.160046550671551 0.0
vertex 0.527625152625153 0.852716727716728 0.5
vertex 0.527625152625153 0.852716727716728 0.0
endloop
endfacet
facet normal -0.0212579771304932 -0.999774023671509 0.0
outer loop
vertex 0.892723595848596 1.54036935286935 0.5
vertex 0.77518315018315 1.54286858974359 0.0
vertex 0.892723595848596 1.54036935286935 0.0
endloop
endfacet
facet normal -0.0212579771304932 -0.999774023671509 0.0
outer loop
vertex 0.77518315018315 1.54286858974359 0.0
vertex 0.892723595848596 1.54036935286935 0.5
vertex 0.77518315018315 1.54286858974359 0.5
endloop
endfacet
facet normal 0.0 -1.0 0.0
outer loop
vertex 0.77518315018315 1.54286858974359 0.5
vertex 0.69017094017094 1.54286858974359 0.0
vertex 0.77518315018315 1.54286858974359 0.0
endloop
endfacet
facet normal 0.0 -1.0 0.0
outer loop
vertex 0.69017094017094 1.54286858974359 0.0
vertex 0.77518315018315 1.54286858974359 0.5
vertex 0.69017094017094 1.54286858974359 0.5
endloop
endfacet
facet normal 1.0 0.0 0.0
outer loop
vertex 0.69017094017094 1.54286858974359 0.0
vertex 0.69017094017094 1.25530372405372 0.5
vertex 0.69017094017094 1.25530372405372 0.0
endloop
endfacet
facet normal 1.0 0.0 0.0
outer loop
vertex 0.69017094017094 1.25530372405372 0.5
vertex 0.69017094017094 1.54286858974359 0.0
vertex 0.69017094017094 1.54286858974359 0.5
endloop
endfacet
facet normal 1.0 0.0 0.0
outer loop
vertex 0.69017094017094 1.25530372405372 0.0
vertex 0.69017094017094 0.967738858363858 0.5
vertex 0.69017094017094 0.967738858363858 0.0
endloop
endfacet
facet normal 1.0 0.0 0.0
outer loop
vertex 0.69017094017094 0.967738858363858 0.5
vertex 0.69017094017094 1.25530372405372 0.0
vertex 0.69017094017094 1.25530372405372 0.5
endloop
endfacet
facet normal 0.0 1.0 0.0
outer loop
vertex 0.69017094017094 0.967738858363858 0.5
vertex 0.77518315018315 0.967738858363858 0.0
vertex 0.69017094017094 0.967738858363858 0.0
endloop
endfacet
facet normal 0.0 1.0 0.0
outer loop
vertex 0.77518315018315 0.967738858363858 0.0
vertex 0.69017094017094 0.967738858363858 0.5
vertex 0.77518315018315 0.967738858363858 0.5
endloop
endfacet
facet normal -0.0212579771304932 0.999774023671509 0.0
outer loop
vertex 0.77518315018315 0.967738858363858 0.5
vertex 0.892723595848596 0.970238095238095 0.0
vertex 0.77518315018315 0.967738858363858 0.0
endloop
endfacet
facet normal -0.0212579771304932 0.999774023671509 0.0
outer loop
vertex 0.892723595848596 0.970238095238095 0.0
vertex 0.77518315018315 0.967738858363858 0.5
vertex 0.892723595848596 0.970238095238095 0.5
endloop
endfacet
facet normal -0.157209769415281 0.987565232478541 0.0
outer loop
vertex 0.892723595848596 0.970238095238095 0.5
vertex 1.01838179181929 0.990241529304029 0.0
vertex 0.892723595848596 0.970238095238095 0.0
endloop
endfacet
facet normal -0.157209769415281 0.987565232478541 0.0
outer loop
vertex 1.01838179181929 0.990241529304029 0.0
vertex 0.892723595848596 0.970238095238095 0.5
vertex 1.01838179181929 0.990241529304029 0.5
endloop
endfacet
facet normal -0.336717725821954 0.941605635665639 0.0
outer loop
vertex 1.01838179181929 0.990241529304029 0.5
vertex 1.13028464590965 1.03025793650794 0.0
vertex 1.01838179181929 0.990241529304029 0.0
endloop
endfacet
facet normal -0.336717725821954 0.941605635665639 0.0
outer loop
vertex 1.13028464590965 1.03025793650794 0.0
vertex 1.01838179181929 0.990241529304029 0.5
vertex 1.13028464590965 1.03025793650794 0.5
endloop
endfacet
facet normal -0.521010886306946 0.85355003154452 0.0
outer loop
vertex 1.13028464590965 1.03025793650794 0.5
vertex 1.20248349740537 1.07432844932845 0.0
vertex 1.13028464590965 1.03025793650794 0.0
endloop
endfacet
facet normal -0.521010886306946 0.85355003154452 0.0
outer loop
vertex 1.20248349740537 1.07432844932845 0.0
vertex 1.13028464590965 1.03025793650794 0.5
vertex 1.20248349740537 1.07432844932845 0.5
endloop
endfacet
facet normal -0.711367661557671 0.702820069498567 0.0
outer loop
vertex 1.25405410561661 1.12652625152625 0.5
vertex 1.20248349740537 1.07432844932845 0.0
vertex 1.20248349740537 1.07432844932845 0.5
endloop
endfacet
facet normal -0.711367661557671 0.702820069498567 0.0
outer loop
vertex 1.20248349740537 1.07432844932845 0.0
vertex 1.25405410561661 1.12652625152625 0.5
vertex 1.25405410561661 1.12652625152625 0.0
endloop
endfacet
facet normal -0.88977900736142 0.456391627945699 0.0
outer loop
vertex 1.28499647054335 1.18685134310134 0.5
vertex 1.25405410561661 1.12652625152625 0.0
vertex 1.25405410561661 1.12652625152625 0.5
endloop
endfacet
facet normal -0.88977900736142 0.456391627945699 0.0
outer loop
vertex 1.25405410561661 1.12652625152625 0.0
vertex 1.28499647054335 1.18685134310134 0.5
vertex 1.28499647054335 1.18685134310134 0.0
endloop
endfacet
facet normal -0.98883809481033 0.148994034282843 0.0
outer loop
vertex 1.29531059218559 1.25530372405372 0.5
vertex 1.28499647054335 1.18685134310134 0.0
vertex 1.28499647054335 1.18685134310134 0.5
endloop
endfacet
facet normal -0.98883809481033 0.148994034282843 0.0
outer loop
vertex 1.28499647054335 1.18685134310134 0.0
vertex 1.29531059218559 1.25530372405372 0.5
vertex 1.29531059218559 1.25530372405372 0.0
endloop
endfacet
facet normal -0.975400007867082 -0.220442338612381 0.0
outer loop
vertex 1.2746823489011 1.34657833485958 0.5
vertex 1.29531059218559 1.25530372405372 0.0
vertex 1.29531059218559 1.25530372405372 0.5
endloop
endfacet
facet normal -0.975400007867082 -0.220442338612381 0.0
outer loop
vertex 1.29531059218559 1.25530372405372 0.0
vertex 1.2746823489011 1.34657833485958 0.5
vertex 1.2746823489011 1.34657833485958 0.0
endloop
endfacet
facet normal -0.786343121436258 -0.617790009121127 0.0
outer loop
vertex 1.21279761904762 1.42534722222222 0.5
vertex 1.2746823489011 1.34657833485958 0.0
vertex 1.2746823489011 1.34657833485958 0.5
endloop
endfacet
facet normal -0.786343121436258 -0.617790009121127 0.0
outer loop
vertex 1.2746823489011 1.34657833485958 0.0
vertex 1.21279761904762 1.42534722222222 0.5
vertex 1.21279761904762 1.42534722222222 0.0
endloop
endfacet
facet normal -0.589409728593934 -0.807834247750629 0.0
outer loop
vertex 1.21279761904762 1.42534722222222 0.5
vertex 1.15153412126068 1.47004612141331 0.0
vertex 1.21279761904762 1.42534722222222 0.0
endloop
endfacet
facet normal -0.589409728593934 -0.807834247750629 0.0
outer loop
vertex 1.15153412126068 1.47004612141331 0.0
vertex 1.21279761904762 1.42534722222222 0.5
vertex 1.15153412126068 1.47004612141331 0.5
endloop
endfacet
facet normal -0.419299185111337 -0.907848111395826 0.0
outer loop
vertex 1.15153412126068 1.47004612141331 0.5
vertex 1.07776728479853 1.50411610958486 0.0
vertex 1.15153412126068 1.47004612141331 0.0
endloop
endfacet
facet normal -0.419299185111337 -0.907848111395826 0.0
outer loop
vertex 1.07776728479853 1.50411610958486 0.0
vertex 1.15153412126068 1.47004612141331 0.5
vertex 1.07776728479853 1.50411610958486 0.5
endloop
endfacet
facet normal -0.192262102518534 -0.981343611552627 0.0
outer loop
vertex 1.07776728479853 1.50411610958486 0.5
vertex 0.892723595848596 1.54036935286935 0.0
vertex 1.07776728479853 1.50411610958486 0.0
endloop
endfacet
facet normal -0.192262102518534 -0.981343611552627 0.0
outer loop
vertex 0.892723595848596 1.54036935286935 0.0
vertex 1.07776728479853 1.50411610958486 0.5
vertex 0.892723595848596 1.54036935286935 0.5
endloop
endfacet
endsolid untitled
